<?xml version="1.0" encoding="UTF-8"?>
<svg version="1.1" viewBox="0 0 149 27" xmlns="http://www.w3.org/2000/svg">
<title>stars</title>
<desc>Created with Sketch.</desc>
<g fill="none" fill-rule="evenodd">
<g transform="translate(-725 -4613)">
<g transform="translate(0 4432)">
<g transform="translate(725 180)">
<g id="Icon/Star/Google-star">
<polygon id="Shape" points="14.53 1.6667 18.68 12.139 29.062 12.139 19.721 17.201 23.351 27.848 14.53 21.917 5.7115 27.59 8.8243 17.245 0 12.136 10.379 12.136" fill="#E8711C" fill-rule="evenodd" opacity=".9"/>
<rect id="Rectangle-12" width="30" height="30"/>
</g>
<g id="Icon/Star/Google-star" transform="translate(30)">
<polygon id="Shape" points="14.53 1.6667 18.68 12.139 29.062 12.139 19.721 17.201 23.351 27.848 14.53 21.917 5.7115 27.59 8.8243 17.245 0 12.136 10.379 12.136" fill="#E8711C" fill-rule="evenodd" opacity=".9"/>
<rect id="Rectangle-12" width="30" height="30"/>
</g>
<g id="Icon/Star/Google-star" transform="translate(60)">
<polygon id="Shape" points="14.53 1.6667 18.68 12.139 29.062 12.139 19.721 17.201 23.351 27.848 14.53 21.917 5.7115 27.59 8.8243 17.245 0 12.136 10.379 12.136" fill="#E8711C" fill-rule="evenodd" opacity=".9"/>
<rect id="Rectangle-12" width="30" height="30"/>
</g>
<g id="a" transform="translate(90)">
<polygon id="c" points="14.53 1.6667 18.68 12.139 29.062 12.139 19.721 17.201 23.351 27.848 14.53 21.917 5.7115 27.59 8.8243 17.245 0 12.136 10.379 12.136" fill="#E8711C" fill-rule="evenodd" opacity=".9"/>
<rect id="b" width="30" height="30"/>
</g>
<g transform="translate(120)">
<polygon points="14.53 1.6667 18.68 12.139 29.062 12.139 19.721 17.201 23.351 27.848 14.53 21.917 5.7115 27.59 8.8243 17.245 0 12.136 10.379 12.136" fill="#E8711C" fill-rule="evenodd" opacity=".9"/>
<rect width="30" height="30"/>
</g>
</g>
</g>
</g>
</g>
</svg>
