<svg width="149" height="27" xmlns="http://www.w3.org/2000/svg"><g fill="none" fill-rule="evenodd"><path fill="#E8711C" opacity=".9" d="M14.53.667l4.15 10.472h10.383l-9.342 5.062 3.63 10.647-8.821-5.931L5.71 26.59l3.113-10.345L0 11.136h10.38z"/><path d="M0-1h30v30H0z"/><path fill="#E8711C" opacity=".9" d="M44.53.667l4.15 10.472h10.382l-9.341 5.062 3.63 10.647-8.821-5.931-8.819 5.673 3.113-10.345L30 11.136h10.38z"/><path d="M30-1h30v30H30z"/><path fill="#E8711C" opacity=".9" d="M74.53.667l4.15 10.472h10.382l-9.341 5.062 3.63 10.647-8.821-5.931-8.819 5.673 3.113-10.345L60 11.136h10.38z"/><path d="M60-1h30v30H60z"/><g><path fill="#E8711C" opacity=".9" d="M104.53.667l4.15 10.472h10.382l-9.341 5.062 3.63 10.647-8.821-5.931-8.819 5.673 3.113-10.345L90 11.136h10.38z"/><path d="M90-1h30v30H90z"/></g><g><path fill="#E8711C" opacity=".9" d="M134.53.667l4.15 10.472h10.382l-9.341 5.062 3.63 10.647-8.821-5.931-8.819 5.673 3.113-10.345L120 11.136h10.38z"/><path d="M120-1h30v30h-30z"/></g></g></svg>