<svg version="1.1" id="Layer_1" xmlns="http://www.w3.org/2000/svg" xmlns:xlink="http://www.w3.org/1999/xlink" x="0px" y="0px" viewBox="0 0 250 250" style="enable-background:new 0 0 250 250;" xml:space="preserve"><style type="text/css">.st0{fill:#FFFFFF;}</style><g><g><path class="st0" d="M82.08,188.18c-4.71,0-9.01-3.18-10.23-7.96l-1.96-7.71c-3.76-14.74-3.76-30.33-0.02-45.08l3.33-13.15 c3.24-12.77,2.83-26.15-1.17-38.69c-1.77-5.56,1.29-11.5,6.85-13.27c5.56-1.77,11.5,1.29,13.27,6.85 c5.21,16.31,5.73,33.71,1.53,50.31l-3.33,13.15c-2.88,11.34-2.87,23.33,0.02,34.67l1.96,7.71c1.44,5.65-1.97,11.4-7.63,12.84 C83.82,188.07,82.95,188.18,82.08,188.18z"/></g><g><path class="st0" d="M124.53,188.18c-4.71,0-9.01-3.18-10.23-7.96l-1.96-7.71c-3.76-14.74-3.76-30.33-0.02-45.08l3.33-13.15 c3.24-12.77,2.83-26.15-1.17-38.69c-1.77-5.56,1.29-11.5,6.85-13.27c5.55-1.77,11.5,1.29,13.27,6.85 c5.21,16.31,5.73,33.71,1.53,50.31l-3.34,13.15c-2.88,11.34-2.87,23.33,0.02,34.67l1.97,7.71c1.44,5.65-1.98,11.4-7.63,12.84 C126.27,188.07,125.39,188.18,124.53,188.18z"/></g><g><path class="st0" d="M166.97,188.18c-4.71,0-9.01-3.18-10.23-7.95l-1.97-7.71c-3.76-14.74-3.76-30.33-0.02-45.08l3.34-13.15 c3.24-12.77,2.83-26.15-1.17-38.69c-1.77-5.56,1.29-11.5,6.85-13.27c5.55-1.78,11.5,1.29,13.27,6.85 c5.2,16.31,5.73,33.71,1.52,50.31l-3.34,13.15c-2.88,11.34-2.87,23.33,0.02,34.66l1.97,7.71c1.44,5.65-1.97,11.4-7.62,12.84 C168.72,188.07,167.84,188.18,166.97,188.18z"/></g></g></svg>